<?xml version="1.0" encoding="utf-8"?>
<!-- Generator: Adobe Illustrator 16.0.0, SVG Export Plug-In . SVG Version: 6.00 Build 0)  -->
<!DOCTYPE svg PUBLIC "-//W3C//DTD SVG 1.1//EN" "http://www.w3.org/Graphics/SVG/1.1/DTD/svg11.dtd">
<svg version="1.1" xmlns="http://www.w3.org/2000/svg" xmlns:xlink="http://www.w3.org/1999/xlink" x="0px" y="0px" width="2100px"
	 height="2100px" viewBox="0 0 2100 2100" enable-background="new 0 0 2100 2100" xml:space="preserve">
<g id="Layer_2">
	<polygon fill="#181B2F" points="1080.277,1868.258 1073.095,1894.119 1074.051,1906.571 1121.946,1919.504 1230.668,1891.725 
		1232.105,1877.835 1227.315,1868.258 1215.82,1852.932 	"/>
	<polygon fill="#181B2F" points="664.458,1776.576 624.394,1901.868 783.193,1926.634 789.841,1906.272 790.492,1894.827 
		782.464,1829.023 	"/>
	<path fill="#FDC979" d="M1329.16,1939.957c3.631,7.298,3.904,16.242,0.684,25.905c-87.379-7.78-174.723-15.591-262.067-23.371
		c-3.222-9.423-1.337-24.328,5.757-36.219c50.371-15.488,103.793-24.739,157.965-27.686
		C1266.727,1893.766,1299.76,1914.017,1329.16,1939.957z"/>
	<path fill="#FDC979" d="M789.841,1906.272c7.127,11.891,9.013,26.796,5.79,36.219c-87.344,7.78-174.722,15.591-262.066,23.371
		c-3.222-9.663-2.947-18.607,0.685-25.905c29.365-25.94,62.397-46.191,97.659-61.37
		C686.05,1881.533,739.471,1890.784,789.841,1906.272z"/>
	<path fill="#181B2F" d="M1773.524,941.814c-0.824,42.697-28.373,83.747-67.573,100.674c-3.6,1.543-7.985,2.845-11.205,0.617
		c0.068-0.205,0.171-0.377,0.273-0.582c-38.447-24.364-76.241-49.789-110.75-77.921l0.104-0.309
		c0.858-17.613,4.627-35.055,11.067-51.433c6.442-16.414,16.038-32.246,30.019-42.216c7.539,4.25,15.42,7.813,23.574,10.21
		c-12.61,21.452-20.765,48.146-10.964,71c9.114,21.144,33.956,34.233,56.573,29.709c12.885-2.569,24.431-10.177,33.307-19.909
		c8.877-9.731,15.248-21.484,18.813-34.506C1755.431,933.317,1764.82,938.49,1773.524,941.814z"/>
	<path fill="#F89345" d="M1694.746,1043.105c-4.078,8.259-8.189,16.482-12.303,24.672c-39.576-23.369-77.51-49.412-113.594-77.887
		l-0.443-0.274c5.24-8.361,10.554-16.687,15.863-25.013c34.509,28.132,72.303,53.558,110.75,77.921
		C1694.917,1042.729,1694.814,1042.9,1694.746,1043.105z"/>
	<path fill="#FDC979" d="M1632.896,1158.104l0.376,0.24c-12.13,20.217-25.016,39.852-38.994,58.8
		c-11,14.907-22.754,29.4-35.262,43.142c-8.293-7.161-15.933-15.112-22.719-23.645c14.565-36.048,44.719-68.942,82.104-88.132
		C1623.505,1150.29,1628.473,1153.89,1632.896,1158.104z"/>
	<path fill="#45D1F8" d="M1442.236,1340.674c-4.557-12.645-10.93-24.843-20.079-37.453c2.913-48.351,23.026-93.924,44.89-137.168
		c30.6-60.582,65.207-118.971,101.359-176.437l0.443,0.274c36.084,28.476,74.018,54.518,113.594,77.887
		c-15.521,30.874-31.56,61.269-49.172,90.566l-0.376-0.24c-4.423-4.214-9.391-7.813-14.495-9.595
		c-37.385,19.189-67.538,52.084-82.104,88.132c6.786,8.532,14.426,16.483,22.719,23.645
		c-32.688,35.979-70.621,67.061-114.105,88.408C1444.087,1345.985,1443.231,1343.313,1442.236,1340.674z"/>
	<path fill="#181B2F" d="M527.636,1805.496c1.919,17.509,0.788,35.979-6.954,51.329c-8.637-0.273-17.306,0.275-25.632,1.922
		c1.234-24.844-3.976-52.292-23.301-67.953c-17.888-14.493-45.987-14.493-63.873,0c-10.212,8.293-16.927,20.39-20.252,33.103
		c-3.325,12.748-3.529,26.111-0.583,39.304c-10.588-1.439-21.313-1.644-30.53-0.514c-19.154-38.209-13.844-87.346,13.02-120.583
		c2.468-3.05,5.722-6.204,9.629-5.724c0,0.207,0,0.413,0,0.617c45.404,3.703,90.669,8.635,134.29,17.477l0.068,0.343
		C520.92,1770.784,525.718,1787.984,527.636,1805.496z"/>
	<path fill="#F89345" d="M379.16,1736.38c-0.238-9.217-0.446-18.435-0.616-27.617c45.916,2.329,91.628,7.744,136.791,16.173
		l0.513,0.033c-0.751,9.836-1.576,19.671-2.397,29.505c-43.621-8.842-88.886-13.773-134.29-17.477
		C379.16,1736.793,379.16,1736.587,379.16,1736.38z"/>
	<path fill="#5CFFE6" d="M520.75,249.533c0.068,0.136,0.137,0.24,0.205,0.344l-0.137,0.137l-0.241-0.309
		C520.646,249.705,520.682,249.637,520.75,249.533z"/>
	<path fill="#45D1F8" d="M503.204,227.74c-4.932,2.296-10.449,3.598-16.274,3.598c-21.315,0-38.552-17.27-38.552-38.55
		c0-21.313,17.237-38.548,38.552-38.548c21.279,0,38.548,17.235,38.548,38.548c0,8.841-2.98,16.963-7.95,23.439
		C513.759,221.127,508.859,225.102,503.204,227.74z"/>
	<path fill="#FDC979" d="M520.75,249.533c-0.068,0.104-0.104,0.171-0.173,0.171l-17.374-21.964
		c5.656-2.639,10.556-6.613,14.324-11.513l17.682,19.839c-0.034,0.103-0.103,0.138-0.137,0.138
		C530.343,240.762,525.58,245.216,520.75,249.533z"/>
	<path fill="#5CFFE6" d="M535.209,236.066l0.48,0.516l-0.034,0.033c-0.173-0.171-0.378-0.308-0.583-0.411
		C535.106,236.204,535.175,236.169,535.209,236.066z"/>
	<path fill="#5CFFE6" d="M535.072,236.204c0.205,0.104,0.41,0.24,0.583,0.411l-14.7,13.262c-0.068-0.104-0.137-0.208-0.205-0.344
		C525.58,245.216,530.343,240.762,535.072,236.204z"/>
	<path fill="#FDC979" d="M757.187,1605.827c26.659,89.468,52.907,181.61,44.306,274.507c-2.878,5.346-6.612,10.278-11,14.493
		c-16.825-4.865-33.922-9.147-51.262-12.713l0.034-0.172c0.102-9.49-0.171-18.98-0.89-28.439v-0.239
		c0.48,0.033,0.992,0.033,1.473,0.033c16.791,0,30.394-13.226,30.394-29.57c0-16.279-13.569-29.504-30.326-29.537l0.034-1.064
		c-6.885-81.349-13.875-163.381-37.179-241.611v-0.684c2.708,0.069,5.415,0.171,8.157,0.376c0.068,0,0.136,0,0.205,0
		C729.19,1565.941,744.371,1584.171,757.187,1605.827z"/>
	<path fill="#FFFFFF" d="M739.847,1798.882c13.708,0,24.842,11.138,24.842,24.845c0,13.739-11.135,24.842-24.842,24.842
		c-13.739,0-24.843-11.103-24.843-24.842C715.004,1810.02,726.108,1798.882,739.847,1798.882z"/>
	<path fill="#181B2F" d="M709.419,1823.727c0-16.313,13.603-29.537,30.428-29.537c0.034,0,0.034,0,0.068,0
		c16.757,0.033,30.326,13.258,30.326,29.537c0,16.345-13.603,29.57-30.394,29.57c-0.481,0-0.993,0-1.473-0.033
		C722.234,1852.508,709.419,1839.591,709.419,1823.727z M715.004,1823.727c0,13.739,11.104,24.842,24.843,24.842
		c13.708,0,24.842-11.103,24.842-24.842c0-13.707-11.135-24.845-24.842-24.845C726.108,1798.882,715.004,1810.02,715.004,1823.727z"
		/>
	<path fill="#FDC979" d="M669.053,1552.164c11.719-0.958,22.754-1.609,33.717-1.334v0.684
		c23.304,78.23,30.294,160.263,37.179,241.611l-0.034,1.064c-0.034,0-0.034,0-0.068,0c-16.825,0-30.428,13.225-30.428,29.537
		c0,15.864,12.815,28.781,28.955,29.537v0.239c0.719,9.459,0.992,18.949,0.89,28.439l-0.034,0.172
		c-34.025-6.991-68.875-11.41-103.825-12.918c-5.963-5.173-8.327-11.24-8.327-17.338c-1.542-83.302,3.598-165.37,14.666-246.58
		c6.545-19.842,15.591-37.35,27.069-53.08C668.882,1552.198,668.984,1552.198,669.053,1552.164z"/>
	<path fill="#181B2F" d="M710.961,1550.623l-0.034,0.583c-2.742-0.205-5.449-0.307-8.157-0.376
		c-10.963-0.275-21.998,0.376-33.717,1.334l-0.069-0.753c-1.336-56.231,2.915-112.633,12.712-168.008
		c7.608,4.112,16.313,6.442,25.53,6.442c2.364,0,4.695-0.137,6.956-0.444C710.378,1443.062,709.282,1496.893,710.961,1550.623z"/>
	<path fill="#FFFFFF" d="M1123.562,1798.882c13.707,0,24.842,11.138,24.842,24.845c0,13.739-11.135,24.842-24.842,24.842
		c-13.706,0-24.843-11.103-24.843-24.842C1098.719,1810.02,1109.855,1798.882,1123.562,1798.882z"/>
	<path fill="#181B2F" d="M1098.719,1823.727c0,13.739,11.137,24.842,24.843,24.842c13.707,0,24.842-11.103,24.842-24.842
		c0-13.707-11.135-24.845-24.842-24.845C1109.855,1798.882,1098.719,1810.02,1098.719,1823.727z M1123.562,1853.297
		c-16.792,0-30.429-13.226-30.429-29.57c0-16.279,13.569-29.469,30.325-29.537c0.034,0,0.069,0,0.104,0
		c16.79,0,30.394,13.225,30.394,29.537c0,15.864-12.85,28.814-28.955,29.537C1124.52,1853.297,1124.041,1853.297,1123.562,1853.297z
		"/>
	<path fill="#FDC979" d="M742.176,1335.877c0,18.299-15.625,33.134-34.95,33.134c-19.328,0-34.986-14.835-34.986-33.134
		c0-18.331,15.659-33.171,34.986-33.171C726.552,1302.706,742.176,1317.546,742.176,1335.877z"/>
	<path fill="#FDC979" d="M714.183,1389.401c-2.261,0.308-4.592,0.444-6.956,0.444c-9.218,0-17.922-2.33-25.53-6.442
		c-16.927-9.08-28.439-26.967-28.439-47.526c0-29.812,24.157-53.969,53.97-53.969c12.334,0,23.745,4.146,32.826,11.135
		c9.904,7.575,17.1,18.539,19.842,31.149h0.034c0.822,3.768,1.268,7.676,1.268,11.685
		C761.196,1363.288,740.703,1385.975,714.183,1389.401z M707.227,1369.011c19.325,0,34.95-14.835,34.95-33.134
		c0-18.331-15.625-33.171-34.95-33.171c-19.328,0-34.986,14.84-34.986,33.171C672.24,1354.176,687.899,1369.011,707.227,1369.011z"
		/>
	<path fill="#181B2F" d="M846.792,1272.347l-0.856,0.686c-28.406,16.961-56.813,33.957-85.22,50.955l-0.788,0.205h-0.034
		c-2.742-12.61-9.938-23.574-19.842-31.149c29.779-16.447,59.589-32.895,89.368-49.31
		C833.772,1254.049,839.63,1263.746,846.792,1272.347z"/>
	<path fill="#FDC979" d="M1123.424,1793.125c6.887-81.349,13.911-163.381,37.214-241.611v-0.684
		c10.93-0.275,21.998,0.376,33.718,1.368c0.068,0,0.137,0,0.205,0c11.479,15.73,20.525,33.238,27.104,53.08
		c11.034,81.21,16.21,163.278,14.632,246.58c0,6.098-2.363,12.165-8.29,17.338c-34.986,1.508-69.803,5.927-103.828,12.918
		l-0.034-0.172c-0.137-9.49,0.171-18.98,0.856-28.439v-0.239c16.105-0.723,28.955-13.673,28.955-29.537
		c0-16.313-13.604-29.537-30.394-29.537c-0.034,0-0.069,0-0.104,0L1123.424,1793.125z"/>
	<path fill="#FDC979" d="M1125,1853.503c-0.686,9.459-0.993,18.949-0.856,28.439l0.034,0.172
		c-17.339,3.565-34.472,7.848-51.263,12.713c-4.385-4.215-8.119-9.147-11.034-14.493c-8.6-92.896,17.682-185.039,44.307-274.507
		c12.852-21.656,28.029-39.886,46.089-54.621c0.068,0,0.137,0,0.205,0c2.707-0.205,5.415-0.307,8.156-0.376v0.684
		c-23.303,78.23-30.327,160.263-37.214,241.611l0.034,1.064c-16.756,0.068-30.325,13.258-30.325,29.537
		c0,16.345,13.637,29.57,30.429,29.57c0.479,0,0.958,0,1.438-0.033V1853.503z"/>
	<path fill="#FDC979" d="M1191.133,1335.877c0,18.299-15.658,33.134-34.951,33.134c-19.325,0-34.984-14.835-34.984-33.134
		c0-18.331,15.659-33.171,34.984-33.171C1175.475,1302.706,1191.133,1317.546,1191.133,1335.877z"/>
	<path fill="#181B2F" d="M1181.677,1383.403c9.801,55.375,14.084,111.776,12.747,168.008l-0.068,0.787
		c-11.72-0.992-22.788-1.644-33.718-1.368c-2.741,0.069-5.449,0.171-8.156,0.376l-0.034-0.583
		c1.644-53.73,0.549-107.562-3.254-161.222c2.295,0.308,4.625,0.444,6.988,0.444
		C1165.398,1389.846,1174.07,1387.516,1181.677,1383.403z"/>
	<path fill="#FDC979" d="M1149.193,1389.401c-26.522-3.427-46.979-26.113-46.979-53.524c0-4.009,0.444-7.917,1.266-11.685
		c2.776-12.61,9.974-23.574,19.877-31.149c9.08-6.989,20.491-11.135,32.825-11.135c29.779,0,53.97,24.157,53.97,53.969
		c0,20.56-11.513,38.446-28.475,47.526c-7.606,4.112-16.278,6.442-25.495,6.442
		C1153.818,1389.846,1151.488,1389.709,1149.193,1389.401z M1156.182,1369.011c19.293,0,34.951-14.835,34.951-33.134
		c0-18.331-15.658-33.171-34.951-33.171c-19.325,0-34.984,14.84-34.984,33.171
		C1121.197,1354.176,1136.856,1369.011,1156.182,1369.011z"/>
	<path fill="#FFFFFF" d="M782.68,1034.025c11.856,0,21.415,9.561,21.415,21.416c0,11.822-9.559,21.417-21.415,21.417
		c-11.823,0-21.416-9.595-21.416-21.417C761.265,1043.586,770.857,1034.025,782.68,1034.025z"/>
	<path fill="#181B2F" d="M1033.956,1243.733c29.811,16.415,59.621,32.862,89.4,49.31c-9.903,7.575-17.101,18.539-19.877,31.149
		l-0.821-0.205c-28.372-16.998-56.779-33.994-85.186-50.955l-0.856-0.686C1023.743,1263.746,1029.603,1254.049,1033.956,1243.733z"
		/>
	<path fill="#F89345" d="M1033.956,1243.733c-4.354,10.315-10.213,20.013-17.34,28.613c-1.919,2.329-3.941,4.559-6.066,6.717
		c-20.491,20.833-49.275,33.306-78.468,34.06c-0.242,0-0.515,0.035-0.788,0c-29.196-0.754-57.979-13.227-78.437-34.06
		c-2.124-2.158-4.146-4.388-6.065-6.717c-7.162-8.601-13.02-18.298-17.372-28.613c-6.203-14.664-9.391-30.564-9.115-46.464
		c8.6-0.137,17.166-0.274,25.767-0.41c2.297,23.437,11.89,46.636,29.264,62.465c15.659,14.257,35.465,25.118,56.368,27.313
		c20.937-2.194,40.708-13.056,56.333-27.313c17.408-15.829,27.003-39.028,29.298-62.465c8.567,0.136,17.167,0.273,25.733,0.41
		C1043.344,1213.169,1040.156,1229.069,1033.956,1243.733z"/>
	<path fill="#F89345" d="M1017.335,1196.859c-2.295,23.437-11.89,46.636-29.298,62.465c-15.625,14.257-35.396,25.118-56.333,27.313
		c-20.903-2.194-40.709-13.056-56.368-27.313c-17.374-15.829-26.967-39.028-29.264-62.465c28.545-0.446,57.089-0.892,85.632-1.234
		C960.249,1195.968,988.791,1196.413,1017.335,1196.859z"/>
	<path fill="#FFFFFF" d="M723.022,1034.025c11.822,0,21.417,9.561,21.417,21.416c0,11.822-9.595,21.417-21.417,21.417
		s-21.416-9.595-21.416-21.417C701.606,1043.586,711.2,1034.025,723.022,1034.025z"/>
	<path fill="#FDC979" d="M1220.055,1019.12c-18.265-20.457-44.102-34.027-71.308-37.419c-71.515-5.448-144.226-7.779-217.043-7.401
		c-72.852-0.377-145.563,1.954-217.043,7.401c-27.206,3.393-53.043,16.962-71.307,37.419
		c-18.298,20.456-28.852,47.665-26.966,76.173c1.678,35.26,3.356,70.451,5.002,105.711c66.305-1.403,132.609-2.672,198.916-3.734
		c8.6-0.137,17.166-0.274,25.767-0.41c28.545-0.445,57.089-0.892,85.632-1.234c28.544,0.343,57.087,0.789,85.631,1.234
		c8.567,0.136,17.167,0.273,25.733,0.41c66.307,1.063,132.645,2.331,198.952,3.734c1.645-35.26,3.322-70.451,5-105.711
		C1248.906,1066.784,1238.318,1039.576,1220.055,1019.12z M723.022,1076.858c-11.822,0-21.416-9.595-21.416-21.417
		c0-11.855,9.594-21.416,21.416-21.416s21.417,9.561,21.417,21.416C744.439,1067.264,734.845,1076.858,723.022,1076.858z
		 M782.68,1076.858c-11.823,0-21.416-9.595-21.416-21.417c0-11.855,9.593-21.416,21.416-21.416c11.856,0,21.415,9.561,21.415,21.416
		C804.095,1067.264,794.537,1076.858,782.68,1076.858z"/>
	<path fill="#181B2F" d="M1421.644,1303.462l0.514-0.241c9.149,12.61,15.522,24.809,20.079,37.453
		c-2.947-0.138-5.858-0.41-8.702-1.164c-13.878-3.633-22.343-17.305-29.231-29.916c-30.084-55.134-57.324-111.879-81.484-169.857
		c0.824-19.086,1.748-38.378,2.673-57.704l0.65,0.034C1354.756,1157.179,1386.622,1231.09,1421.644,1303.462z"/>
	<path fill="#5CFFE6" d="M1334.641,249.533c0.068,0.104,0.105,0.171,0.172,0.171l-0.24,0.309l-0.137-0.137
		C1334.504,249.773,1334.572,249.669,1334.641,249.533z"/>
	<path fill="#5CFFE6" d="M1320.318,236.204c-0.206,0.104-0.412,0.24-0.584,0.411l-0.033-0.033l0.446-0.516
		C1320.216,236.169,1320.25,236.204,1320.318,236.204z"/>
	<path fill="#45D1F8" d="M1352.185,227.74c-5.653-2.639-10.554-6.613-14.323-11.513c-4.968-6.476-7.951-14.598-7.951-23.439
		c0-21.313,17.272-38.548,38.551-38.548c21.315,0,38.55,17.235,38.55,38.548c0,21.28-17.234,38.55-38.55,38.55
		C1362.636,231.338,1357.119,230.036,1352.185,227.74z"/>
	<path fill="#FDC979" d="M1334.641,249.533c-4.832-4.317-9.594-8.771-14.322-13.329c-0.068,0-0.103-0.035-0.171-0.138l17.714-19.839
		c3.77,4.9,8.67,8.875,14.323,11.513l-17.372,21.964C1334.746,249.705,1334.709,249.637,1334.641,249.533z"/>
	<path fill="#5CFFE6" d="M1334.641,249.533c-0.068,0.136-0.137,0.24-0.205,0.344l-14.701-13.262
		c0.172-0.171,0.378-0.308,0.584-0.411C1325.047,240.762,1329.809,245.216,1334.641,249.533z"/>
	<path fill="#F89345" d="M1319.734,236.615l14.701,13.262c-31.078,58.629-64.66,115.888-100.605,171.64
		c-20.697-22.343-43.416-42.901-67.676-61.405C1214.298,315.325,1265.663,274.033,1319.734,236.615z"/>
	<path fill="#FDC979" d="M429.43,1491.344c3.871,38.687-7.539,81.826-31.699,116.195c-5.343,0.822-11.444-0.068-17.303-1.745
		l-0.446-0.035c1.336-23.508,3.632-46.944,7.195-70.211c2.813-18.299,6.479-36.563,11.138-54.554
		C408.971,1483.463,419.423,1486.921,429.43,1491.344z"/>
	<path fill="#45D1F8" d="M486.037,1371.856c4.214,2.604,8.669,5.105,13.466,7.472c19.944,44.167,23.335,93.854,24.091,142.306
		c1.061,67.847-2.469,135.661-7.747,203.335l-0.513-0.033c-45.163-8.429-90.875-13.844-136.791-16.173
		c-0.618-34.54-0.549-68.911,1.439-103.004l0.446,0.035c5.858,1.677,11.959,2.567,17.303,1.745
		c24.16-34.369,35.57-77.509,31.699-116.195c-10.007-4.423-20.459-7.881-31.115-10.35c12.233-47.048,31.32-92.21,59.933-131.343
		c2.09,2.091,4.215,4.146,6.407,6.1C471.063,1361.61,478.087,1366.957,486.037,1371.856z"/>
	<path fill="#FFFFFF" d="M725.456,709.112c-10.864,10.863-28.476,10.863-39.372,0c-10.864-10.896-10.864-28.509,0-39.372
		c10.896-10.862,28.508-10.862,39.372,0C736.317,680.603,736.317,698.216,725.456,709.112z"/>
	<path fill="#181B2F" d="M686.084,709.112c10.896,10.863,28.508,10.863,39.372,0c10.861-10.896,10.861-28.509,0-39.372
		c-10.864-10.862-28.476-10.862-39.372,0C675.221,680.603,675.221,698.216,686.084,709.112z M705.788,631.157
		c32.174,0,58.253,26.076,58.253,58.253c0,32.176-26.079,58.253-58.253,58.253c-32.177,0-58.253-26.077-58.253-58.253
		C647.535,657.233,673.611,631.157,705.788,631.157z"/>
	<path fill="#181B2F" d="M537.163,1066.921c0.444,9.047,0.89,18.128,1.303,27.139c-16.14,29.093-23.542,62.228-29.401,95.055
		c-10.725,60.446-16.962,121.646-23.028,182.742c-7.95-4.899-14.974-10.246-21.382-16.105c4.866-55.306,12.986-110.2,23.301-161.017
		c7.574-46.465,24.365-91.422,49.173-131.445C537.129,1064.488,537.129,1065.722,537.163,1066.921z"/>
	<path fill="#FDC979" d="M538.466,1094.06c-0.413-9.011-0.859-18.092-1.303-27.139c-0.034-1.199-0.034-2.433-0.034-3.632
		c-0.242-17.236,0.068-34.472,3.939-51.194c8.636-37.179,34.678-68.807,66.614-89.743c31.903-20.937,69.355-32.038,107.015-38.343
		c52.494-4.797,102.625-5.758,152.724-4.523c10.69,14.905,25.047,27.378,41.941,34.54c7.092,3.016,14.666,5.072,22.342,5.962
		c7.675-0.891,15.249-2.947,22.342-5.962c16.859-7.161,31.25-19.635,41.908-34.54c50.096-1.235,100.227-0.274,152.758,4.523
		c37.623,6.305,75.111,17.406,107.013,38.343c31.936,20.937,57.979,52.564,66.581,89.743c4.146,17.888,4.215,36.392,3.904,54.826
		c-0.238,5.037-0.48,10.073-0.72,15.111c-0.925,19.326-1.849,38.618-2.673,57.704c-0.959,21.28-1.815,42.319-2.535,62.981
		c-26.076-0.617-52.187-1.165-78.263-1.712c1.645-35.262,3.322-70.453,5.003-105.713c1.883-28.509-8.705-55.717-26.969-76.173
		c-18.265-20.457-44.102-34.027-71.308-37.419c-71.515-5.448-144.226-7.779-217.043-7.402
		c-72.852-0.377-145.563,1.954-217.043,7.402c-27.206,3.392-53.043,16.962-71.307,37.419
		c-18.298,20.456-28.852,47.665-26.966,76.173c1.678,35.26,3.356,70.451,5.002,105.713c-26.077,0.547-52.189,1.095-78.266,1.712
		C541.926,1167.391,540.246,1130.827,538.466,1094.06z"/>
	<path fill="#FFFFFF" d="M1169.272,709.112c-10.864,10.863-28.474,10.863-39.338,0c-10.861-10.896-10.861-28.509,0-39.372
		c10.864-10.862,28.474-10.862,39.338,0C1180.17,680.603,1180.17,698.216,1169.272,709.112z"/>
	<path fill="#181B2F" d="M1129.935,709.112c10.864,10.863,28.474,10.863,39.338,0c10.897-10.896,10.897-28.509,0-39.372
		c-10.864-10.862-28.474-10.862-39.338,0C1119.073,680.603,1119.073,698.216,1129.935,709.112z M1149.604,631.157
		c32.176,0,58.252,26.076,58.252,58.253c0,32.176-26.076,58.253-58.252,58.253c-32.177,0-58.254-26.077-58.254-58.253
		C1091.35,657.233,1117.427,631.157,1149.604,631.157z"/>
	<path fill="#F89345" d="M1084.977,689.41c0-35.706,28.921-64.627,64.627-64.627c35.705,0,64.626,28.921,64.626,64.627
		c0,35.705-28.921,64.626-64.626,64.626C1113.897,754.036,1084.977,725.115,1084.977,689.41z M1149.604,631.157
		c-32.177,0-58.254,26.076-58.254,58.253c0,32.176,26.077,58.253,58.254,58.253c32.176,0,58.252-26.077,58.252-58.253
		C1207.855,657.233,1181.779,631.157,1149.604,631.157z"/>
	<path fill="#F89345" d="M689.236,360.145c-24.259,18.504-46.979,39.063-67.675,61.405
		c-35.911-55.785-69.492-113.044-100.605-171.673l14.7-13.262C589.728,274.033,641.126,315.325,689.236,360.145z"/>
	<path fill="#FDC979" d="M689.236,360.145c11.239-8.635,22.823-16.755,34.679-24.466c18.366-11.924,37.589-22.821,57.497-32.21
		l0.892,1.885c1.679,35.054,3.391,70.109,6.818,109.309c-57.429,27.549-109.138,66.922-150.978,114.963
		c-14.323,16.447-27.549,33.992-37.829,53.25c-9.354,17.579-16.174,36.46-21.451,55.683c-17.201,62.639-18.093,129.971-0.72,192.542
		c-18.051,0.845-36.069,1.75-54.087,2.658c-1.977,0.1-3.967-0.315-5.739-1.198c-0.079-0.04-0.16-0.08-0.236-0.12
		c-2.798-3.443-5.212-6.42-8.007-9.865c-3.941-15.704-6.875-31.633-8.856-47.707c-5.414-44.34-3.393-89.64,5.447-133.57
		c6.512-32.451,16.756-64.181,30.464-94.198c21.039-46.122,49.925-88.338,84.432-125.552
		C642.256,399.208,664.977,378.648,689.236,360.145z"/>
	<path fill="#181B2F" d="M867.421,879.485c-0.378-0.481-0.754-0.994-1.097-1.509c-1.096-20.799-1.027-39.542-0.378-58.149
		c20.561-0.651,41.154-1.198,61.749-1.713c23.266,0.583,46.499,1.234,69.733,1.954c0.683,18.537,0.717,37.213-0.378,57.909
		c-0.344,0.515-0.72,1.028-1.096,1.509c-10.659,14.905-25.049,27.378-41.908,34.54c-7.093,3.016-14.667,5.072-22.342,5.962
		c-7.676-0.891-15.25-2.947-22.342-5.962C892.469,906.864,878.112,894.39,867.421,879.485z"/>
	<path fill="#F89345" d="M641.162,689.41c0-35.706,28.92-64.627,64.626-64.627c35.671,0,64.626,28.921,64.626,64.627
		c0,35.705-28.955,64.626-64.626,64.626C670.082,754.036,641.162,725.115,641.162,689.41z M705.788,631.157
		c-32.177,0-58.253,26.076-58.253,58.253c0,32.176,26.076,58.253,58.253,58.253c32.174,0,58.253-26.077,58.253-58.253
		C764.041,657.233,737.961,631.157,705.788,631.157z"/>
	<path fill="#FDC979" d="M1166.154,360.111c24.26,18.504,46.979,39.063,67.676,61.405c34.472,37.247,63.393,79.429,84.432,125.585
		c13.705,30.017,23.952,61.747,30.462,94.198c8.842,43.93,10.863,89.23,5.448,133.57c-1.98,16.074-4.917,32.003-8.856,47.707
		c-2.795,3.445-5.212,6.422-8.007,9.865c-0.079,0.04-0.156,0.08-0.238,0.12c-1.771,0.883-3.76,1.297-5.736,1.198
		c-18.02-0.908-36.037-1.813-54.088-2.658c17.371-62.57,16.48-129.902-0.72-192.542c-5.277-19.223-12.098-38.104-21.485-55.683
		c-10.247-19.257-23.472-36.802-37.831-53.25c-41.804-48.041-93.513-87.414-150.941-114.963c3.425-39.2,5.14-74.255,6.817-109.309
		l0.891-1.885c19.91,9.389,39.133,20.286,57.499,32.21C1143.332,343.389,1154.916,351.51,1166.154,360.111z"/>
	<path fill="#FDC979" d="M578.145,831.1c-17.374-62.57-16.481-129.902,0.72-192.542c5.277-19.223,12.098-38.104,21.451-55.683
		c10.279-19.257,23.506-36.802,37.829-53.25c41.84-48.041,93.549-87.414,150.978-114.963c-3.427-39.2-5.139-74.255-6.818-109.309
		l-0.892-1.885c29.537-13.913,60.548-24.5,92.348-30.053l0.171,0.994c0.034,100.778,3.118,201.521,11.411,302.846
		c14.117,0.514,28.269,0.206,42.353-0.96c14.083,1.166,28.234,1.474,42.354,0.96c8.291-101.326,11.376-202.068,11.376-302.846
		l0.17-0.994c31.798,5.552,62.844,16.106,92.381,30.053l-0.891,1.885c-1.678,35.054-3.393,70.109-6.817,109.309
		c57.429,27.549,109.138,66.922,150.941,114.963c14.359,16.447,27.584,33.992,37.831,53.25c9.388,17.579,16.208,36.46,21.485,55.683
		c17.2,62.639,18.091,129.971,0.72,192.542H578.145z M1214.229,689.41c0-35.706-28.921-64.627-64.626-64.627
		c-35.706,0-64.627,28.921-64.627,64.627c0,35.705,28.921,64.626,64.627,64.626C1185.309,754.036,1214.229,725.115,1214.229,689.41z
		 M770.414,689.41c0-35.706-28.955-64.627-64.626-64.627c-35.706,0-64.626,28.921-64.626,64.627
		c0,35.705,28.92,64.626,64.626,64.626C741.459,754.036,770.414,725.115,770.414,689.41z"/>
	<path fill="#F89345" d="M927.695,269.1c18.126-0.342,36.152,1.2,53.901,4.316l-0.17,0.994c0,100.778-3.085,201.521-11.376,302.846
		c-14.12,0.514-28.271,0.206-42.354-0.96c-14.084,1.166-28.236,1.474-42.353,0.96c-8.293-101.326-11.376-202.068-11.411-302.846
		l-0.171-0.994C891.51,270.299,909.533,268.757,927.695,269.1z"/>
	<path fill="#181B2F" d="M506.665,641.301c-20.358,1.301-40.662,2.618-60.117,4.163v134.065c1.185-0.095,2.376-0.233,3.578-0.445
		c17.064-1.405,34.06-2.81,51.092-4.215C495.804,730.529,497.825,685.229,506.665,641.301z"/>
	<path fill="#45D1F8" d="M437.345,646.2c-12.61,5.518-22.822,15.899-29.333,28.03c-6.51,12.165-9.491,26.008-9.217,41.291
		c-0.446,15.454,1.747,31.56,10.142,44.512c7.836,12.073,21.953,20.756,37.611,19.497V645.464
		C443.475,645.707,440.368,645.942,437.345,646.2z"/>
	<path fill="#181B2F" d="M1348.724,641.301c8.842,43.928,10.863,89.229,5.448,133.568c17.03,1.405,34.029,2.811,51.059,4.215
		c0.602,0.107,1.197,0.164,1.797,0.24V645.32C1388.139,643.837,1368.459,642.562,1348.724,641.301z"/>
	<path fill="#45D1F8" d="M1456.595,715.521c0.273-15.282-2.707-29.126-9.217-41.291c-6.513-12.131-16.722-22.513-29.367-28.03
		c-3.608-0.306-7.306-0.59-10.983-0.879v134.004c16.395,2.097,31.291-6.763,39.424-19.292
		C1454.847,747.08,1457.039,730.975,1456.595,715.521z"/>
	<path fill="#F89345" d="M1151.002,1068.469h-77.316c-9.033,0-16.357-7.322-16.357-16.355l0,0c0-9.032,7.324-16.354,16.357-16.354
		h77.316c9.033,0,16.355,7.322,16.355,16.354l0,0C1167.357,1061.146,1160.035,1068.469,1151.002,1068.469z"/>
</g>
<g id="Layer_3">
	<g>
		<path fill="#F89345" d="M578.386,835.376c-1.503,0-2.887-0.995-3.314-2.515c-17.562-62.636-17.397-130.14,0.474-195.213
			c5.946-21.65,13.059-40.1,21.744-56.404c9.329-17.499,21.491-34.623,38.275-53.895c41.4-47.542,93.199-87.179,149.921-114.742
			c-3.314-38.403-5-73.319-6.634-107.103c-0.092-1.9,1.375-3.515,3.273-3.605c1.87-0.123,3.514,1.373,3.606,3.273
			c1.663,34.413,3.384,69.998,6.821,109.203c0.126,1.429-0.649,2.785-1.94,3.405c-56.723,27.2-108.542,66.653-149.855,114.091
			c-16.432,18.87-28.312,35.586-37.388,52.614c-8.445,15.848-15.373,33.833-21.183,54.986
			c-17.54,63.868-17.706,130.098-0.48,191.531c0.513,1.831-0.558,3.732-2.387,4.245
			C579.007,835.334,578.693,835.376,578.386,835.376z"/>
	</g>
	<g>
		<path fill="#181B2F" d="M995.767,712.994c0-7.175-7.883-11.334-13.968-7.535c-14.935,9.326-32.486,14.491-50.103,14.491
			c-17.618,0-35.166-5.165-50.101-14.491c-6.087-3.799-13.97,0.36-13.97,7.535v0.194c0,2.583,1.069,5.088,3.039,6.759
			c16.87,14.317,38.897,22.469,61.033,22.469c22.135,0,44.163-8.151,61.032-22.469c1.971-1.67,3.039-4.176,3.039-6.759V712.994z"/>
	</g>
	<g>
		<path fill="#F89345" d="M621.514,1207.148c-1.826,0-3.349-1.437-3.436-3.281l-5.144-108.398
			c-1.845-28.077,8.299-56.763,27.84-78.634c18.75-20.997,45.525-35.053,73.459-38.562c78.804-6.016,161.976-8.399,247.403-7.103
			c1.902,0.028,3.42,1.594,3.393,3.496c-0.03,1.884-1.565,3.391-3.444,3.391c-0.017,0-0.034,0-0.051,0
			c-85.205-1.291-168.181,1.084-246.608,7.067c-26.139,3.288-51.356,16.524-69.016,36.299c-18.315,20.503-27.827,47.35-26.1,73.658
			l5.146,108.461c0.09,1.899-1.377,3.513-3.275,3.604C621.625,1207.147,621.567,1207.148,621.514,1207.148z"/>
	</g>
	<g>
		<path fill="#F89345" d="M393.449,1611.286c-4.207,0-8.878-0.731-13.953-2.188c-1.828-0.526-2.885-2.434-2.36-4.262
			c0.526-1.829,2.438-2.88,4.259-2.359c5.4,1.553,10.337,2.17,14.385,1.821c22.306-32.316,33.594-73.394,30.415-110.604
			c-9.273-3.951-18.926-7.092-28.72-9.347c-1.856-0.428-3.011-2.276-2.586-4.13c0.429-1.851,2.289-3.004,4.127-2.583
			c10.874,2.502,21.573,6.055,31.805,10.561c1.138,0.499,1.915,1.571,2.039,2.81c3.978,39.813-8.107,84.115-32.324,118.513
			c-0.54,0.77-1.371,1.281-2.294,1.422C396.72,1611.17,395.121,1611.286,393.449,1611.286z"/>
	</g>
	<g>
		<path fill="#F89345" d="M739.96,1796.555c-1.768,0-3.276-1.358-3.429-3.154c-6.769-79.984-13.774-162.69-37.068-240.895
			c-0.542-1.823,0.494-3.74,2.316-4.282c1.817-0.543,3.739,0.488,4.283,2.316c23.499,78.885,30.533,161.95,37.335,242.28
			c0.158,1.894-1.248,3.561-3.141,3.721C740.157,1796.551,740.059,1796.555,739.96,1796.555z"/>
	</g>
	<g>
		<path fill="#F89345" d="M739.257,1885.376c-0.013,0-0.027,0-0.042,0c-1.901-0.025-3.425-1.586-3.402-3.486
			c0.118-9.348-0.17-18.811-0.865-28.126c-0.14-1.898,1.283-3.549,3.18-3.69c1.932-0.114,3.551,1.284,3.689,3.18
			c0.707,9.515,1.004,19.177,0.885,28.722C742.678,1883.863,741.141,1885.376,739.257,1885.376z"/>
	</g>
	<g>
		<path fill="#F89345" d="M707.225,1372.472c-21.181,0-38.416-16.423-38.416-36.611c0-20.186,17.235-36.608,38.416-36.608
			s38.413,16.423,38.413,36.608C745.637,1356.049,728.405,1372.472,707.225,1372.472z M707.225,1306.14
			c-17.385,0-31.528,13.332-31.528,29.721c0,16.39,14.143,29.726,31.528,29.726c17.384,0,31.525-13.336,31.525-29.726
			C738.75,1319.472,724.608,1306.14,707.225,1306.14z"/>
	</g>
	<g>
		<path fill="#ED6B1F" d="M933.47,1289.374c-11.386,0-22.566-3.926-29.019-6.689c-10.749-4.603-21.322-11.604-31.422-20.811
			c-17.056-15.54-28.187-39.543-30.538-65.862c-0.168-1.892,1.228-3.566,3.122-3.735c1.89-0.173,3.57,1.229,3.739,3.124
			c2.199,24.619,12.52,46.993,28.314,61.383c9.533,8.687,19.458,15.271,29.497,19.571c7.475,3.2,21.855,8.146,34.22,5.286
			c14.754-3.412,30.501-12.24,44.343-24.857c15.789-14.389,26.108-36.762,28.316-61.384c0.169-1.896,1.821-3.296,3.736-3.123
			c1.895,0.171,3.295,1.844,3.125,3.737c-2.36,26.319-13.488,50.325-30.535,65.86c-10.401,9.479-27.071,21.77-47.432,26.478
			C939.83,1289.071,936.641,1289.374,933.47,1289.374z"/>
	</g>
	<g>
		<path fill="#F89345" d="M1241.875,1207.148c-0.054,0-0.11-0.001-0.166-0.003c-1.898-0.091-3.367-1.704-3.275-3.604l5.148-108.398
			c1.725-26.37-7.788-53.216-26.099-73.72c-17.661-19.775-42.878-33.011-69.183-36.316c-78.26-5.965-161.226-8.344-246.441-7.05
			c-2.014,0.062-3.467-1.491-3.496-3.391c-0.03-1.902,1.488-3.467,3.391-3.496c85.42-1.299,168.601,1.087,247.238,7.085
			c28.097,3.526,54.873,17.582,73.631,38.58c19.532,21.871,29.676,50.556,27.833,78.695l-5.144,108.337
			C1245.225,1205.712,1243.703,1207.148,1241.875,1207.148z"/>
	</g>
	<g>
		<path fill="#F89345" d="M1682.567,1071.34c-0.597,0-1.204-0.154-1.751-0.479c-39.589-23.425-77.973-49.76-114.086-78.273
			c-1.493-1.177-1.748-3.344-0.57-4.836c1.184-1.49,3.346-1.746,4.838-0.568c35.872,28.323,73.999,54.482,113.324,77.75
			c1.636,0.968,2.178,3.079,1.211,4.718C1684.889,1070.736,1683.744,1071.34,1682.567,1071.34z"/>
	</g>
	<g>
		<path fill="#F89345" d="M1559.098,1263.757c-0.795,0-1.594-0.275-2.242-0.833c-8.461-7.266-16.283-15.39-23.251-24.139
			c-0.771-0.973-0.963-2.283-0.497-3.435c14.993-37.101,46.295-70.704,83.727-89.891c0.834-0.427,1.811-0.493,2.689-0.19
			c5.117,1.762,10.416,5.242,15.742,10.345c1.375,1.315,1.422,3.495,0.108,4.868c-1.316,1.376-3.497,1.42-4.87,0.107
			c-4.054-3.881-8.132-6.726-11.887-8.298c-34.773,18.234-63.867,49.351-78.354,83.776c6.371,7.815,13.456,15.082,21.081,21.631
			c1.439,1.241,1.606,3.414,0.367,4.855C1561.031,1263.349,1560.065,1263.757,1559.098,1263.757z"/>
	</g>
	<g>
		<path fill="#F89345" d="M1123.431,1796.555c-0.099,0-0.194-0.004-0.294-0.014c-1.896-0.16-3.302-1.827-3.142-3.721
			c6.801-80.325,13.833-163.387,37.335-242.28c0.547-1.824,2.467-2.856,4.285-2.316c1.823,0.542,2.859,2.459,2.317,4.282
			c-23.301,78.217-30.302,160.916-37.073,240.895C1126.706,1795.196,1125.201,1796.555,1123.431,1796.555z"/>
	</g>
	<g>
		<path fill="#F89345" d="M1124.133,1885.376c-1.883,0-3.42-1.516-3.443-3.401c-0.115-9.545,0.18-19.207,0.884-28.722
			c0.141-1.894,1.832-3.297,3.688-3.18c1.898,0.142,3.319,1.792,3.182,3.69c-0.69,9.315-0.98,18.778-0.865,28.126
			c0.021,1.902-1.501,3.461-3.401,3.486C1124.161,1885.376,1124.146,1885.376,1124.133,1885.376z"/>
	</g>
	<g>
		<path fill="#F89345" d="M1156.166,1372.472c-21.18,0-38.41-16.423-38.41-36.611c0-20.186,17.23-36.608,38.41-36.608
			c21.183,0,38.416,16.423,38.416,36.608C1194.582,1356.049,1177.349,1372.472,1156.166,1372.472z M1156.166,1306.14
			c-17.381,0-31.522,13.332-31.522,29.721c0,16.39,14.142,29.726,31.522,29.726c17.385,0,31.53-13.336,31.53-29.726
			C1187.696,1319.472,1173.551,1306.14,1156.166,1306.14z"/>
	</g>
	<g>
		<path fill="#F89345" d="M1276.998,835.376c-0.308,0-0.619-0.042-0.931-0.129c-1.83-0.513-2.899-2.415-2.387-4.245
			c17.226-61.431,17.057-127.661-0.483-191.529c-5.805-21.142-12.731-39.13-21.182-54.99c-9.075-17.025-20.955-33.742-37.387-52.609
			c-41.318-47.443-93.139-86.896-149.854-114.094c-1.294-0.62-2.067-1.977-1.94-3.405c3.42-39.034,5.143-74.548,6.807-108.892
			l0.015-0.312c0.091-1.9,1.71-3.379,3.604-3.272c1.902,0.091,3.365,1.705,3.276,3.605l-0.018,0.313
			c-1.631,33.714-3.322,68.554-6.617,106.789c56.714,27.562,108.515,67.199,149.921,114.742
			c16.784,19.271,28.946,36.396,38.272,53.895c8.689,16.316,15.805,34.767,21.744,56.405
			c17.871,65.074,18.035,132.578,0.475,195.212C1279.888,834.381,1278.504,835.376,1276.998,835.376z"/>
	</g>
</g>
</svg>
